
        <svg xmlns="http://www.w3.org/2000/svg" xmlns:xlink="http://www.w3.org/1999/xlink" version="1.1" width="3300" 
        height="548.6214094649985" viewBox="0 0 3300 548.6214094649985">
			<rect fill="#000000" width="3300" height="548.6214094649985"/>
			<g transform="scale(15) translate(10, 10)">
				<defs id="SvgjsDefs1302"></defs><g id="SvgjsG1303" featureKey="nameFeature-0" transform="matrix(0.586923330990512,0,0,0.586923330990512,-0.7043085149422929,-6.902217387317098)" fill="#ffffff"><path d="M13.32 39.76 c1.0933 0 2.12 -0.20668 3.08 -0.62 s1.7933 -0.97332 2.5 -1.68 s1.2667 -1.54 1.68 -2.5 s0.62 -1.9867 0.62 -3.08 l0 -12 c0 -1.0933 -0.20668 -2.12 -0.62 -3.08 s-0.98 -1.7933 -1.7 -2.5 s-1.56 -1.2667 -2.52 -1.68 s-1.9733 -0.62 -3.04 -0.62 c-1.0933 0 -2.12 0.20668 -3.08 0.62 s-1.7933 0.97332 -2.5 1.68 s-1.2667 1.54 -1.68 2.5 s-0.62 1.9867 -0.62 3.08 l0 12 c0 1.0933 0.20668 2.12 0.62 3.08 s0.97332 1.7933 1.68 2.5 s1.54 1.2667 2.5 1.68 s1.9867 0.62 3.08 0.62 z M13.32 11.760000000000002 c1.8667 0 3.5467 0.41332 5.04 1.24 s2.7666 1.9134 3.82 3.26 s1.86 2.86 2.42 4.54 s0.84 3.3733 0.84 5.08 s-0.28 3.4 -0.84 5.08 s-1.3667 3.1933 -2.42 4.54 s-2.3266 2.4334 -3.82 3.26 s-3.1733 1.24 -5.04 1.24 s-3.5467 -0.41332 -5.04 -1.24 s-2.7666 -1.9134 -3.82 -3.26 s-1.86 -2.86 -2.42 -4.54 s-0.84 -3.3733 -0.84 -5.08 s0.28 -3.4 0.84 -5.08 s1.3667 -3.1933 2.42 -4.54 s2.3266 -2.4334 3.82 -3.26 s3.1733 -1.24 5.04 -1.24 z M51.24 39.76 l0.000039062 0.23996 l-12 0 l0 -0.24 l3.88 0 l0 -15.76 c-0.66668 0 -1.36 0.12 -2.08 0.36 s-1.42 0.54668 -2.1 0.92 s-1.3267 0.79332 -1.94 1.26 s-1.16 0.92668 -1.64 1.38 l0 12.08 l-8.12 0 l0 -0.24 l3.88 0 l0 -15.76 l-3.88 0 l0 -0.24 l8.12 0 l0 3.88 c0.50668 -0.48 1.0667 -0.94668 1.68 -1.4 s1.2666 -0.86664 1.96 -1.24 s1.4 -0.67332 2.12 -0.9 s1.4267 -0.34 2.12 -0.34 l0.64 0.08 l1.42 0.46 l1.42 1.22 l0.64 2.36 l0 11.88 l3.88 0 z M60.56 23.76 c1.52 0 2.7934 0.30684 3.82 0.92016 s1.86 1.3533 2.5 2.22 s1.1 1.7667 1.38 2.7 s0.42 1.7333 0.42 2.4 l-12 0 l0 3.88 c0 1.0933 0.37332 2.0133 1.12 2.76 s1.6667 1.12 2.76 1.12 c0.26668 0 0.57336 -0.02668 0.92004 -0.08 s0.69336 -0.13332 1.04 -0.24 s0.66 -0.25336 0.94 -0.44004 s0.5 -0.4 0.66 -0.64 c-0.26668 0.21332 -0.57336 0.32 -0.92004 0.32 c-0.4 0 -0.74 -0.14 -1.02 -0.42 s-0.42 -0.62 -0.42 -1.02 s0.14 -0.74668 0.42 -1.04 s0.62 -0.44 1.02 -0.44 s0.74668 0.14668 1.04 0.44 s0.44 0.64 0.44 1.04 c0 0.69332 -0.21332 1.2266 -0.64 1.6 s-0.89336 0.64664 -1.4 0.81996 s-0.97336 0.27332 -1.4 0.3 s-0.65336 0.04 -0.68004 0.04 c-1.36 0 -2.5467 -0.24 -3.56 -0.72 s-1.86 -1.1133 -2.54 -1.9 s-1.1867 -1.66 -1.52 -2.62 s-0.5 -1.92 -0.5 -2.88 c0 -1.12 0.21332 -2.1667 0.64 -3.14 s1.0134 -1.8333 1.76 -2.58 s1.6067 -1.3334 2.58 -1.76 s2.02 -0.64 3.14 -0.64 z M64.44 31.759999999999998 l-0.000078124 -3.88 c0 -0.02668 -0.02668 -0.24668 -0.08 -0.66 s-0.20664 -0.86 -0.45996 -1.34 s-0.64 -0.91332 -1.16 -1.3 s-1.2467 -0.58 -2.18 -0.58 s-1.66 0.19332 -2.18 0.58 s-0.90668 0.82 -1.16 1.3 s-0.40664 0.92668 -0.45996 1.34 s-0.08 0.63332 -0.08 0.66 l0 3.88 l7.76 0 z M81.88 39.76 l0 0.24 l-12 0 l0 -0.24 l3.88 0 l0 -15.76 l-3.88 0 l0 -0.24 l8.12 0 l0 16 l3.88 0 z M75.88 20 c-0.58668 0 -1.0867 -0.20668 -1.5 -0.62 s-0.62 -0.91332 -0.62 -1.5 s0.20668 -1.0867 0.62 -1.5 s0.91332 -0.62 1.5 -0.62 s1.0867 0.20668 1.5 0.62 s0.62 0.91332 0.62 1.5 s-0.20668 1.0867 -0.62 1.5 s-0.91332 0.62 -1.5 0.62 z M95.08 23.76 c1.0133 0.02668 1.8001 0.24676 2.3601 0.66008 s0.97332 0.88664 1.24 1.42 c0.29332 0.61332 0.46664 1.2933 0.51996 2.04 c0 0.58668 -0.20668 1.0867 -0.62 1.5 s-0.91332 0.62 -1.5 0.62 s-1.0867 -0.20668 -1.5 -0.62 s-0.62 -0.91332 -0.62 -1.5 s0.20668 -1.0867 0.62 -1.5 s0.91332 -0.62 1.5 -0.62 c0.34668 0 0.66 0.08 0.94 0.24 s0.52668 0.36 0.74 0.6 c-0.08 -0.26668 -0.20668 -0.55336 -0.38 -0.86004 s-0.40664 -0.59336 -0.69996 -0.86004 s-0.65332 -0.48 -1.08 -0.64 s-0.93336 -0.24 -1.52 -0.24 c-1.2 0 -2.1467 0.37332 -2.84 1.12 s-1.04 1.68 -1.04 2.8 l0 11.84 l3.8 0 l0 0.24 l-11.92 0 l0 -0.24 l3.88 0 l0 -15.76 l-3.88 0 l0 -0.24 l8.12 0 l0 2.84 c0.08 -0.29332 0.21332 -0.60664 0.4 -0.93996 s0.42668 -0.64 0.72 -0.92 s0.66664 -0.51332 1.12 -0.7 s1 -0.28 1.64 -0.28 z M113.4 27.880000000000003 c0 -0.53332 -0.1 -1.04 -0.3 -1.52 s-0.48 -0.89332 -0.84 -1.24 s-0.77332 -0.62 -1.24 -0.82 s-0.96668 -0.3 -1.5 -0.3 c-1.0933 0 -2.0133 0.37332 -2.76 1.12 s-1.12 1.6667 -1.12 2.76 l0 8 c0 1.0933 0.37332 2.0133 1.12 2.76 s1.6667 1.12 2.76 1.12 c0.53332 0 1.0333 -0.1 1.5 -0.3 s0.88 -0.47332 1.24 -0.82 s0.64 -0.76 0.84 -1.24 s0.3 -0.98668 0.3 -1.52 l0 -8 z M109.52000000000001 23.76 c1.12 0 2.1734 0.21328 3.16 0.63996 s1.8467 1.0067 2.58 1.74 s1.3133 1.5933 1.74 2.58 s0.64 2.04 0.64 3.16 s-0.21332 2.1667 -0.64 3.14 s-1.0134 1.8333 -1.76 2.58 s-1.6067 1.3334 -2.58 1.76 s-2.02 0.64 -3.14 0.64 c-1.1733 0 -2.26 -0.23332 -3.26 -0.7 s-1.86 -1.0867 -2.58 -1.86 s-1.28 -1.64 -1.68 -2.6 s-0.6 -1.9467 -0.6 -2.96 c0 -1.12 0.21332 -2.1733 0.64 -3.16 s1.0067 -1.8467 1.74 -2.58 s1.5933 -1.3133 2.58 -1.74 s2.04 -0.64 3.16 -0.64 z M133.08 33.88 c0 1.3067 -0.29984 2.4067 -0.89984 3.3 s-1.3533 1.5733 -2.26 2.04 s-1.8934 0.70668 -2.96 0.72 s-2.0534 -0.2 -2.96 -0.64 s-1.66 -1.1067 -2.26 -2 s-0.9 -2.0333 -0.9 -3.42 c0 -0.58668 0.20668 -1.0867 0.62 -1.5 s0.91332 -0.62 1.5 -0.62 s1.0867 0.20668 1.5 0.62 s0.62 0.91332 0.62 1.5 s-0.20668 1.0867 -0.62 1.5 s-0.91332 0.62 -1.5 0.62 c-0.74668 0 -1.3334 -0.30668 -1.76 -0.92 c0.08 0.42668 0.23332 0.91336 0.46 1.46 s0.55336 1.06 0.98004 1.54 s0.99336 0.88 1.7 1.2 s1.58 0.48 2.62 0.48 c0.53332 0 0.98 -0.18 1.34 -0.54 s0.54 -0.80668 0.54 -1.34 l0 -8 c0 -0.50668 -0.16668 -0.94668 -0.5 -1.32 s-0.79332 -0.56 -1.38 -0.56 c-0.53332 0 -0.94 -0.10668 -1.22 -0.32 s-0.48668 -0.45332 -0.62 -0.72 c-0.16 -0.29332 -0.25332 -0.65332 -0.28 -1.08 c0.02668 -0.4 0.12 -0.74668 0.28 -1.04 c0.13332 -0.26668 0.34 -0.51336 0.62 -0.74004 s0.68668 -0.34 1.22 -0.34 c0.61332 0 1.12 0.20668 1.52 0.62 s0.6 0.91332 0.6 1.5 c0 0.32 -0.11332 0.58668 -0.34 0.8 s-0.48668 0.32 -0.78 0.32 c-0.32 0 -0.58668 -0.10668 -0.8 -0.32 s-0.32 -0.48 -0.32 -0.8 c0 -0.29332 0.10668 -0.55332 0.32 -0.78 s0.48 -0.34 0.8 -0.34 c0.13332 0 0.25332 0.02668 0.36 0.08 l0.32 0.16 c-0.13332 -0.24 -0.32 -0.46668 -0.56 -0.68 s-0.61332 -0.32 -1.12 -0.32 c-0.48 0 -0.84668 0.1 -1.1 0.3 s-0.44664 0.42 -0.57996 0.66 c-0.13332 0.29332 -0.2 0.6 -0.2 0.92 c0 0.34668 0.06668 0.66668 0.2 0.96 c0.13332 0.24 0.32664 0.45332 0.57996 0.64 s0.62 0.28 1.1 0.28 c1.1467 0.02668 2.16 0.26668 3.04 0.72 c0.37332 0.18668 0.74664 0.42668 1.12 0.72 s0.70664 0.66 0.99996 1.1 s0.52664 0.95332 0.69996 1.54 s0.26 1.2667 0.26 2.04 z M167 27.759999999999998 c0.58668 0 1.0798 0.20668 1.4798 0.62 s0.6 0.91332 0.6 1.5 s-0.2 1.0867 -0.6 1.5 s-0.89332 0.62 -1.48 0.62 c-0.61332 0 -1.12 -0.20668 -1.52 -0.62 s-0.6 -0.91332 -0.6 -1.5 c0 -0.74668 0.30668 -1.32 0.92 -1.72 c-0.69332 0.18668 -1.2266 0.48 -1.6 0.88 s-0.64 0.81332 -0.8 1.24 c-0.21332 0.48 -0.32 1.0133 -0.32 1.6 c-0.08 1.52 -0.41332 2.88 -1 4.08 c-0.24 0.50668 -0.56 1 -0.96 1.48 s-0.88 0.91332 -1.44 1.3 s-1.2267 0.69336 -2 0.92004 s-1.6666 0.34 -2.68 0.34 c-1.2 0 -2.3133 -0.21332 -3.34 -0.64 s-1.9 -1.0134 -2.62 -1.76 s-1.2733 -1.64 -1.66 -2.68 s-0.55336 -2.16 -0.50004 -3.36 c0.05332 -1.12 0.28 -2.1533 0.68 -3.1 s0.94668 -1.7667 1.64 -2.46 s1.5333 -1.24 2.52 -1.64 s2.08 -0.6 3.28 -0.6 c0.74668 0 1.4267 0.14668 2.04 0.44 c0.50668 0.24 0.97336 0.64 1.4 1.2 s0.64 1.4 0.64 2.52 c0 0.58668 -0.2 1.08 -0.6 1.48 s-0.89332 0.6 -1.48 0.6 c-0.61332 0 -1.12 -0.20668 -1.52 -0.62 s-0.6 -0.91332 -0.6 -1.5 s0.2 -1.0867 0.6 -1.5 s0.90668 -0.62 1.52 -0.62 c0.34668 0 0.66 0.08 0.94 0.24 s0.51332 0.36 0.7 0.6 c-0.29332 -0.96 -0.76 -1.6333 -1.4 -2.02 s-1.3867 -0.58 -2.24 -0.58 c-1.0933 0 -2.02 0.37332 -2.78 1.12 s-1.14 1.6667 -1.14 2.76 l0 8 c0 1.0933 0.38 2.0133 1.14 2.76 s1.6867 1.12 2.78 1.12 c0.98668 0 1.8534 -0.11332 2.6 -0.34 s1.3934 -0.52 1.94 -0.88 s1.0134 -0.78 1.4 -1.26 s0.7 -0.96 0.94 -1.44 c0.58668 -1.1467 0.92 -2.4667 1 -3.96 c0 -0.98668 -0.16668 -1.8867 -0.5 -2.7 s-0.78 -1.5666 -1.34 -2.26 s-1.2 -1.34 -1.92 -1.94 s-1.4533 -1.18 -2.2 -1.74 s-1.48 -1.1133 -2.2 -1.66 s-1.3667 -1.1134 -1.94 -1.7 s-1.0333 -1.2067 -1.38 -1.86 s-0.52 -1.3666 -0.52 -2.14 c0.05332 -0.74668 0.22664 -1.4267 0.51996 -2.04 c0.26668 -0.53332 0.67336 -1.0133 1.22 -1.44 s1.34 -0.64 2.38 -0.64 c1.12 0 2.08 0.32668 2.88 0.98 s1.2 1.7 1.2 3.14 c0 0.61332 -0.2 1.12 -0.6 1.52 s-0.89332 0.6 -1.48 0.6 c-0.61332 0 -1.12 -0.20668 -1.52 -0.62 s-0.6 -0.91332 -0.6 -1.5 s0.2 -1.0867 0.6 -1.5 s0.90668 -0.62 1.52 -0.62 c0.34668 0 0.66 0.08 0.94 0.24 s0.51332 0.36 0.7 0.6 c-0.08 -0.26668 -0.20668 -0.55336 -0.38 -0.86004 s-0.4 -0.59336 -0.68 -0.86004 s-0.63332 -0.48 -1.06 -0.64 s-0.93336 -0.24 -1.52 -0.24 c-0.98668 0 -1.7467 0.20668 -2.28 0.62 s-0.92 0.86 -1.16 1.34 c-0.29332 0.56 -0.45332 1.2 -0.48 1.92 c0 0.72 0.16668 1.3933 0.5 2.02 s0.78 1.2267 1.34 1.8 s1.2 1.1333 1.92 1.68 s1.4533 1.1 2.2 1.66 c0.69332 0.50668 1.3733 1.04 2.04 1.6 s1.2734 1.1533 1.82 1.78 s1.0067 1.3067 1.38 2.04 s0.61332 1.54 0.72 2.42 c0.24 -1.0133 0.70668 -1.7866 1.4 -2.32 s1.56 -0.8 2.6 -0.8 z M195.48 11.760000000000002 c1.8667 0 3.5467 0.41328 5.04 1.24 s2.7666 1.9134 3.82 3.26 s1.86 2.86 2.42 4.54 s0.84 3.3733 0.84 5.08 c0 1.7333 -0.28 3.44 -0.84 5.12 s-1.3667 3.1867 -2.42 4.52 s-2.3266 2.4133 -3.82 3.24 s-3.1733 1.24 -5.04 1.24 l-12 0 l0 -0.24 l3.88 0 l0 -27.76 l-3.88 0 l0 -0.24 l12 0 z M195.48 12 l-3.88 0 l0 27.76 l0.78 0 l1.3 0.02 l1.24 0.02 l0.56 0 c1.0933 0 2.12 -0.20668 3.08 -0.62 s1.8 -0.97332 2.52 -1.68 s1.2867 -1.54 1.7 -2.5 s0.62 -1.9867 0.62 -3.08 l-0.04 -12.04 c0 -0.98668 -0.11332 -1.86 -0.34 -2.62 s-0.52668 -1.42 -0.9 -1.98 s-0.8 -1.0267 -1.28 -1.4 s-0.96 -0.68 -1.44 -0.92 c-1.1467 -0.56 -2.4534 -0.88 -3.92 -0.96 z M218.52 23.76 c1.52 0 2.7934 0.30684 3.82 0.92016 s1.86 1.3533 2.5 2.22 s1.1 1.7667 1.38 2.7 s0.42 1.7333 0.42 2.4 l-12 0 l0 3.88 c0 1.0933 0.37332 2.0133 1.12 2.76 s1.6667 1.12 2.76 1.12 c0.26668 0 0.57336 -0.02668 0.92004 -0.08 s0.69336 -0.13332 1.04 -0.24 s0.66 -0.25336 0.94 -0.44004 s0.5 -0.4 0.66 -0.64 c-0.26668 0.21332 -0.57336 0.32 -0.92004 0.32 c-0.4 0 -0.74 -0.14 -1.02 -0.42 s-0.42 -0.62 -0.42 -1.02 s0.14 -0.74668 0.42 -1.04 s0.62 -0.44 1.02 -0.44 s0.74668 0.14668 1.04 0.44 s0.44 0.64 0.44 1.04 c0 0.69332 -0.21332 1.2266 -0.64 1.6 s-0.89336 0.64664 -1.4 0.81996 s-0.97336 0.27332 -1.4 0.3 s-0.65336 0.04 -0.68004 0.04 c-1.36 0 -2.5467 -0.24 -3.56 -0.72 s-1.86 -1.1133 -2.54 -1.9 s-1.1867 -1.66 -1.52 -2.62 s-0.5 -1.92 -0.5 -2.88 c0 -1.12 0.21332 -2.1667 0.64 -3.14 s1.0134 -1.8333 1.76 -2.58 s1.6067 -1.3334 2.58 -1.76 s2.02 -0.64 3.14 -0.64 z M222.4 31.759999999999998 l-0.000078124 -3.88 c0 -0.02668 -0.02668 -0.24668 -0.08 -0.66 s-0.20664 -0.86 -0.45996 -1.34 s-0.64 -0.91332 -1.16 -1.3 s-1.2467 -0.58 -2.18 -0.58 s-1.66 0.19332 -2.18 0.58 s-0.90668 0.82 -1.16 1.3 s-0.40664 0.92668 -0.45996 1.34 s-0.08 0.63332 -0.08 0.66 l0 3.88 l7.76 0 z M235.96 39.76 l3.88 0 l0 0.24 l-12 0 l0 -0.24 l3.88 0 l0 -27.76 l-3.88 0 l0 -0.24 l8.12 0 l0 28 z M253.04 39.76 l0 0.24 l-12 0 l0 -0.24 l3.88 0 l0 -15.76 l-3.88 0 l0 -0.24 l8.12 0 l0 16 l3.88 0 z M247.04 20 c-0.58668 0 -1.0867 -0.20668 -1.5 -0.62 s-0.62 -0.91332 -0.62 -1.5 s0.20668 -1.0867 0.62 -1.5 s0.91332 -0.62 1.5 -0.62 s1.0867 0.20668 1.5 0.62 s0.62 0.91332 0.62 1.5 s-0.20668 1.0867 -0.62 1.5 s-0.91332 0.62 -1.5 0.62 z M266.24 23.76 c1.0133 0.02668 1.8001 0.24676 2.3601 0.66008 s0.97332 0.88664 1.24 1.42 c0.29332 0.61332 0.46664 1.2933 0.51996 2.04 c0 0.58668 -0.20668 1.0867 -0.62 1.5 s-0.91332 0.62 -1.5 0.62 s-1.0867 -0.20668 -1.5 -0.62 s-0.62 -0.91332 -0.62 -1.5 s0.20668 -1.0867 0.62 -1.5 s0.91332 -0.62 1.5 -0.62 c0.34668 0 0.66 0.08 0.94 0.24 s0.52668 0.36 0.74 0.6 c-0.08 -0.26668 -0.20668 -0.55336 -0.38 -0.86004 s-0.40664 -0.59336 -0.69996 -0.86004 s-0.65332 -0.48 -1.08 -0.64 s-0.93336 -0.24 -1.52 -0.24 c-1.2 0 -2.1467 0.37332 -2.84 1.12 s-1.04 1.68 -1.04 2.8 l0 11.84 l3.8 0 l0 0.24 l-11.92 0 l0 -0.24 l3.88 0 l0 -15.76 l-3.88 0 l0 -0.24 l8.12 0 l0 2.84 c0.08 -0.29332 0.21332 -0.60664 0.4 -0.93996 s0.42668 -0.64 0.72 -0.92 s0.66664 -0.51332 1.12 -0.7 s1 -0.28 1.64 -0.28 z M283.56 39.76 l0 0.24 l-12 0 l0 -0.24 l3.88 0 l0 -15.76 l-3.88 0 l0 -0.24 l8.12 0 l0 16 l3.88 0 z M277.56 20 c-0.58668 0 -1.0867 -0.20668 -1.5 -0.62 s-0.62 -0.91332 -0.62 -1.5 s0.20668 -1.0867 0.62 -1.5 s0.91332 -0.62 1.5 -0.62 s1.0867 0.20668 1.5 0.62 s0.62 0.91332 0.62 1.5 s-0.20668 1.0867 -0.62 1.5 s-0.91332 0.62 -1.5 0.62 z M296.76 23.76 l7.9999 0 l0 0.24 l-3.88 0 l0 10.56 c0 0.69332 -0.08668 1.2933 -0.26 1.8 s-0.40664 0.95336 -0.69996 1.34 s-0.62664 0.71336 -0.99996 0.98004 s-0.74664 0.48 -1.12 0.64 c-0.37332 0.18668 -0.74 0.32 -1.1 0.4 s-0.68668 0.14668 -0.98 0.2 c-0.32 0.05332 -0.64 0.08 -0.96 0.08 c-0.77332 0 -1.52 -0.12668 -2.24 -0.38 s-1.3733 -0.62 -1.96 -1.1 s-1.0534 -1.0533 -1.4 -1.72 s-0.52 -1.4134 -0.52 -2.24 l0 -10.56 l-3.88 0 l0 -0.24 l8.12 0 l0 14.32 c0 0.4 0.06668 0.70668 0.2 0.92 s0.3 0.38 0.5 0.5 s0.40668 0.19332 0.62 0.22 s0.4 0.04 0.56 0.04 c0.29332 0 0.6 -0.02668 0.92 -0.08 c0.29332 -0.05332 0.61332 -0.12 0.96 -0.2 s0.70668 -0.2 1.08 -0.36 c0.74668 -0.32 1.42 -0.83332 2.02 -1.54 s0.9 -1.7134 0.9 -3.02 l0 -10.56 l-3.88 0 l0 -0.24 z M341.96 39.76 l-0.000039062 0.23996 l-12 0 l0 -0.24 l3.88 0 l0 -15.76 c-0.69332 0 -1.3933 0.12 -2.1 0.36 s-1.4 0.54668 -2.08 0.92 s-1.3267 0.79332 -1.94 1.26 s-1.16 0.92668 -1.64 1.38 l0 12.08 l-8.12 0 l0 -0.24 l3.88 0 l0 -15.76 c-0.69332 0 -1.3933 0.12 -2.1 0.36 s-1.4 0.54668 -2.08 0.92 s-1.3267 0.79332 -1.94 1.26 s-1.16 0.92668 -1.64 1.38 l0 11.96 l0 0.12 l-8.12 0 l0 -0.24 l3.88 0 l0 -15.76 l-3.88 0 l0 -0.24 l8.12 0 l0 3.88 c1.0933 -1.0133 2.28 -1.8866 3.56 -2.62 s2.68 -1.1533 4.2 -1.26 c0.56 -0.02668 1.0933 0.05332 1.6 0.24 s0.94668 0.46 1.32 0.82 s0.67332 0.78 0.9 1.26 s0.35336 1 0.38004 1.56 c1.12 -1.0133 2.32 -1.9 3.6 -2.66 s2.68 -1.1667 4.2 -1.22 c1.28 -0.05332 2.3067 0.28 3.08 1 s1.16 1.76 1.16 3.12 l0 11.88 l3.88 0 z"></path></g>
			</g>
		</svg>
	